<svg viewBox="0 0 75 62" fill="none" xmlns="http://www.w3.org/2000/svg">
  <path d="M71.875 21.875H56.5L42.2 1.55C41.1 0 38.9 -0.4 37.35 0.7C35.8 1.8 35.4 4 36.5 5.55L48.1 21.875H26.9L38.5 5.55C39.6 4 39.2 1.8 37.65 0.7C36.1 -0.4 33.9 0 32.8 1.55L18.5 21.875H3.125C1.4 21.875 0 23.275 0 25C0 26.725 1.4 28.125 3.125 28.125H5.55L10.65 54.55C11.3 57.95 14.3 60.5 17.8 60.5H57.2C60.7 60.5 63.7 57.95 64.35 54.55L69.45 28.125H71.875C73.6 28.125 75 26.725 75 25C75 23.275 73.6 21.875 71.875 21.875ZM37.5 47C34.05 47 31.25 44.2 31.25 40.75C31.25 37.3 34.05 34.5 37.5 34.5C40.95 34.5 43.75 37.3 43.75 40.75C43.75 44.2 40.95 47 37.5 47Z" fill="#C58F2C"/>
</svg>
