<svg viewBox="0 0 92 75" fill="none" xmlns="http://www.w3.org/2000/svg">
  <path d="M46 75C42.6545 72.3611 39.0303 70.3125 35.1273 68.8542C31.2242 67.3958 27.1818 66.6667 23 66.6667C20.0727 66.6667 17.1984 67.0486 14.3771 67.8125C11.5558 68.5764 8.8543 69.6528 6.27272 71.0417C4.80909 71.8055 3.39842 71.7708 2.04073 70.9375C0.68303 70.1042 0.00278788 68.8889 0 67.2917V17.0833C0 16.3194 0.192364 15.5903 0.577091 14.8958C0.961818 14.2014 1.53612 13.6806 2.3 13.3333C5.50606 11.6667 8.85151 10.4167 12.3364 9.58333C15.8212 8.75 19.3758 8.33333 23 8.33333C28.1576 8.33333 32.5485 8.92361 36.1727 10.1042C39.797 11.2847 43.7 13.0903 47.8818 15.5208C48.6485 15.9375 49.2242 16.4236 49.6089 16.9792C49.9936 17.5347 50.1846 18.2639 50.1818 19.1667V62.7083C53.2485 61.25 56.3333 60.1555 59.4362 59.425C62.5391 58.6944 65.727 58.3306 69 58.3333C71.5091 58.3333 73.9666 58.5417 76.3725 58.9583C78.7785 59.375 81.1997 60 83.6363 60.8333V10.7292C84.6818 11.0764 85.7105 11.4583 86.7225 11.875C87.7345 12.2917 88.727 12.7778 89.7 13.3333C90.4666 13.6806 91.0423 14.2014 91.4271 14.8958C91.8118 15.5903 92.0028 16.3194 92 17.0833V67.2917C92 68.8889 91.3197 70.1042 89.9592 70.9375C88.5988 71.7708 87.1881 71.8055 85.7272 71.0417C83.1485 69.6528 80.4484 68.5764 77.6271 67.8125C74.8057 67.0486 71.93 66.6667 69 66.6667C64.8182 66.6667 60.7757 67.3958 56.8727 68.8542C52.9697 70.3125 49.3454 72.3611 46 75ZM60.6363 50V4.16667L73.1818 0V45.8333L60.6363 50Z" fill="#C58F2C"/>
</svg>
