<svg width="68" height="75" viewBox="0 0 68 75" fill="none" xmlns="http://www.w3.org/2000/svg">
<path d="M33.75 45C32.6875 45 31.7975 44.64 31.08 43.92C30.3625 43.2 30.0025 42.31 30 41.25C29.9975 40.19 30.3575 39.3 31.08 38.58C31.8025 37.86 32.6925 37.5 33.75 37.5C34.8075 37.5 35.6987 37.86 36.4238 38.58C37.1488 39.3 37.5075 40.19 37.5 41.25C37.4925 42.31 37.1325 43.2013 36.42 43.9238C35.7075 44.6463 34.8175 45.005 33.75 45ZM16.08 43.92C15.36 43.205 15 42.315 15 41.25C15 40.185 15.36 39.295 16.08 38.58C16.8 37.865 17.69 37.505 18.75 37.5C19.81 37.495 20.7013 37.855 21.4238 38.58C22.1463 39.305 22.505 40.195 22.5 41.25C22.495 42.305 22.135 43.1963 21.42 43.9238C20.705 44.6513 19.815 45.01 18.75 45C17.685 44.99 16.795 44.63 16.08 43.92ZM48.75 45C47.6875 45 46.7975 44.64 46.08 43.92C45.3625 43.2 45.0025 42.31 45 41.25C44.9975 40.19 45.3575 39.3 46.08 38.58C46.8025 37.86 47.6925 37.5 48.75 37.5C49.8075 37.5 50.6987 37.86 51.4237 38.58C52.1487 39.3 52.5075 40.19 52.5 41.25C52.4925 42.31 52.1325 43.2013 51.42 43.9238C50.7075 44.6463 49.8175 45.005 48.75 45ZM33.75 60C32.6875 60 31.7975 59.64 31.08 58.92C30.3625 58.2 30.0025 57.31 30 56.25C29.9975 55.19 30.3575 54.3 31.08 53.58C31.8025 52.86 32.6925 52.5 33.75 52.5C34.8075 52.5 35.6987 52.86 36.4238 53.58C37.1488 54.3 37.5075 55.19 37.5 56.25C37.4925 57.31 37.1325 58.2012 36.42 58.9237C35.7075 59.6462 34.8175 60.005 33.75 60ZM16.08 58.92C15.36 58.205 15 57.315 15 56.25C15 55.185 15.36 54.295 16.08 53.58C16.8 52.865 17.69 52.505 18.75 52.5C19.81 52.495 20.7013 52.855 21.4238 53.58C22.1463 54.305 22.505 55.195 22.5 56.25C22.495 57.305 22.135 58.1962 21.42 58.9237C20.705 59.6512 19.815 60.01 18.75 60C17.685 59.99 16.795 59.63 16.08 58.92ZM48.75 60C47.6875 60 46.7975 59.64 46.08 58.92C45.3625 58.2 45.0025 57.31 45 56.25C44.9975 55.19 45.3575 54.3 46.08 53.58C46.8025 52.86 47.6925 52.5 48.75 52.5C49.8075 52.5 50.6987 52.86 51.4237 53.58C52.1487 54.3 52.5075 55.19 52.5 56.25C52.4925 57.31 52.1325 58.2012 51.42 58.9237C50.7075 59.6462 49.8175 60.005 48.75 60ZM7.5 75C5.4375 75 3.6725 74.2663 2.205 72.7988C0.7375 71.3313 0.0025 69.565 0 67.5V15C0 12.9375 0.735 11.1725 2.205 9.705C3.675 8.2375 5.44 7.5025 7.5 7.5H11.25V0H18.75V7.5H48.75V0H56.25V7.5H60C62.0625 7.5 63.8288 8.235 65.2988 9.705C66.7688 11.175 67.5025 12.94 67.5 15V67.5C67.5 69.5625 66.7663 71.3288 65.2988 72.7988C63.8312 74.2688 62.065 75.0025 60 75H7.5ZM7.5 67.5H60V30H7.5V67.5Z" fill="#C58F2C"/>
</svg>
