<svg width="92" height="73" viewBox="0 0 92 73" fill="none" xmlns="http://www.w3.org/2000/svg">
<path d="M17.4821 46.6645C13.84 46.6645 10.7442 45.3898 8.19476 42.8403C5.64528 40.2908 4.37054 37.195 4.37054 33.5529V20.4413C4.37054 19.203 4.79012 18.1657 5.62926 17.3295C6.4684 16.4933 7.50567 16.0737 8.74107 16.0708H61.2967C61.6609 13.667 62.6443 11.5182 64.2468 9.62427C65.8493 7.73037 67.8161 6.38279 70.147 5.58153L86.2087 0.227631C87.3742 -0.136579 88.5032 -0.0637363 89.5959 0.446159C90.6885 0.956054 91.4169 1.79374 91.7811 2.95921C92.1453 4.12469 92.055 5.25374 91.5101 6.34637C90.9653 7.439 90.1087 8.16742 88.9403 8.53164L72.8786 13.8855C72.0045 14.1769 71.2935 14.7057 70.7458 15.472C70.198 16.2383 69.9256 17.0935 69.9285 18.0375V33.5529C69.9285 37.195 68.6537 40.2908 66.1043 42.8403C63.5548 45.3898 60.459 46.6645 56.8169 46.6645H17.4821ZM30.5937 68.5171V59.7761H4.37054C3.13223 59.7761 2.09496 59.3565 1.25873 58.5174C0.4225 57.6782 0.00292876 56.641 1.50708e-05 55.4055C-0.00289862 54.1701 0.416673 53.1329 1.25873 52.2937C2.10078 51.4546 3.13805 51.035 4.37054 51.035H30.5937C32.9975 51.035 35.056 51.8916 36.7693 53.6049C38.4825 55.3181 39.3377 57.3752 39.3348 59.7761V68.5171C39.3348 69.7555 38.9152 70.7942 38.0761 71.6333C37.2369 72.4725 36.1997 72.8906 34.9642 72.8877C33.7288 72.8848 32.6916 72.4652 31.8524 71.629C31.0133 70.7927 30.5937 69.7555 30.5937 68.5171ZM48.0758 68.5171V59.7761C48.0758 57.3723 48.9325 55.3152 50.6457 53.6049C52.359 51.8946 54.416 51.0379 56.8169 51.035H83.0401C84.2784 51.035 85.3171 51.4546 86.1563 52.2937C86.9954 53.1329 87.4135 54.1701 87.4106 55.4055C87.4077 56.641 86.9881 57.6797 86.1519 58.5217C85.3157 59.3638 84.2784 59.7819 83.0401 59.7761H56.8169V68.5171C56.8169 69.7555 56.3973 70.7942 55.5582 71.6333C54.719 72.4725 53.6818 72.8906 52.4464 72.8877C51.211 72.8848 50.1737 72.4652 49.3345 71.629C48.4954 70.7927 48.0758 69.7555 48.0758 68.5171Z" fill="#C58F2C"/>
</svg>
