<svg viewBox="0 0 67.5 75" fill="none" xmlns="http://www.w3.org/2000/svg">
  <path d="M12.33 73.9238C11.61 73.2038 11.25 72.3125 11.25 71.25V40.6875C7.875 39.8125 5.15625 38.0313 3.09375 35.3438C1.03125 32.6563 0 29.625 0 26.25V3.75001C0 2.68751 0.36 1.79751 1.08 1.08001C1.8 0.362513 2.69 0.00251293 3.75 1.2931e-05C4.81 -0.00248707 5.70125 0.357513 6.42375 1.08001C7.14625 1.80251 7.505 2.69251 7.5 3.75001V22.5H11.25V3.75001C11.25 2.68751 11.61 1.79751 12.33 1.08001C13.05 0.362513 13.94 0.00251293 15 1.2931e-05C16.06 -0.00248707 16.9512 0.357513 17.6737 1.08001C18.3962 1.80251 18.755 2.69251 18.75 3.75001V22.5H22.5V3.75001C22.5 2.68751 22.86 1.79751 23.58 1.08001C24.3 0.362513 25.19 0.00251293 26.25 1.2931e-05C27.31 -0.00248707 28.2013 0.357513 28.9238 1.08001C29.6463 1.80251 30.005 2.69251 30 3.75001V26.25C30 29.625 28.9688 32.6563 26.9063 35.3438C24.8438 38.0313 22.125 39.8125 18.75 40.6875V71.25C18.75 72.3125 18.39 73.2038 17.67 73.9238C16.95 74.6438 16.06 75.0025 15 75C13.94 74.9975 13.05 74.6413 12.33 73.9238ZM49.83 73.92C49.11 73.205 48.75 72.315 48.75 71.25V39.2813C45.375 38.1563 42.6562 35.7975 40.5937 32.205C38.5312 28.6125 37.5 24.5338 37.5 19.9688C37.5 14.4063 38.9688 9.68751 41.9063 5.81251C44.8438 1.93751 48.375 1.2931e-05 52.5 1.2931e-05C56.625 1.2931e-05 60.1563 1.95251 63.0938 5.85751C66.0313 9.76251 67.5 14.4975 67.5 20.0625C67.5 24.625 66.4687 28.6875 64.4062 32.25C62.3437 35.8125 59.625 38.1563 56.25 39.2813V71.25C56.25 72.3125 55.89 73.2038 55.17 73.9238C54.45 74.6438 53.56 75.0025 52.5 75C51.44 74.9975 50.55 74.6375 49.83 73.92Z" fill="#C58F2C"/>
</svg>
